<?xml version="1.0"?>
<svg xmlns="http://www.w3.org/2000/svg" id="Capa_1" enable-background="new 0 0 512.002 512.002" height="512px" viewBox="0 0 512.002 512.002" width="512px" class=""><g><g><path d="m375.074 211.89c0-4.142-3.357-7.5-7.5-7.5s-7.5 3.358-7.5 7.5v60.608h-48.875c-4.143 0-7.5 3.358-7.5 7.5s3.357 7.5 7.5 7.5h48.875v53.108h-48.875c-4.143 0-7.5 3.358-7.5 7.5s3.357 7.5 7.5 7.5h48.778c-1.007 20.214-9.794 29.316-19.068 38.917-4.088 4.232-8.41 8.71-12.001 14.191h-35.911c-4.143 0-7.5 3.358-7.5 7.5s3.357 7.5 7.5 7.5h29.312c-.999 4.024-1.577 8.5-1.574 13.559v.101c.015 30.974.016-9.502.016 57.07 0 1.411-1.148 2.559-2.56 2.559h-62.826c-4.143 0-7.5 3.358-7.5 7.5s3.357 7.5 7.5 7.5h62.826c9.683 0 17.56-7.877 17.56-17.559 0-77.259.003-19.448-.016-57.175-.003-5.368.824-9.74 2.249-13.554h73.799c3.157 9.56 12.169 16.48 22.773 16.48 13.223 0 23.98-10.758 23.98-23.98s-10.758-23.98-23.98-23.98c-10.604 0-19.616 6.92-22.773 16.48h-63.681c1.155-1.238 2.355-2.485 3.596-3.771 9.933-10.283 22.17-22.972 23.285-49.337h55.001c3.157 9.56 12.169 16.48 22.773 16.48 13.223 0 23.98-10.758 23.98-23.98s-10.758-23.98-23.98-23.98c-10.604 0-19.616 6.921-22.773 16.48h-54.91v-53.108h54.91c3.157 9.56 12.169 16.48 22.773 16.48 13.223 0 23.98-10.758 23.98-23.98s-10.758-23.98-23.98-23.98c-10.604 0-19.616 6.921-22.773 16.48h-54.91zm59.482 195.344c4.952 0 8.98 4.028 8.98 8.98s-4.028 8.98-8.98 8.98-8.98-4.029-8.98-8.98 4.028-8.98 8.98-8.98zm18.201-68.108c4.952 0 8.98 4.029 8.98 8.98s-4.028 8.98-8.98 8.98-8.98-4.029-8.98-8.98 4.028-8.98 8.98-8.98zm0-68.108c4.952 0 8.98 4.029 8.98 8.98s-4.028 8.98-8.98 8.98-8.98-4.029-8.98-8.98 4.028-8.98 8.98-8.98z" data-original="#000000" class="active-path" data-old_color="#000000" fill="#FFFFFF"/><path d="m92.737 365.626c.022.053.047.106.071.159 9.93 21.476 23.743 33.022 38.921 48.053 7.017 6.95 8.577 19.913 8.739 37.238-.001.047-.001.094-.001.141v43.227c0 9.682 7.877 17.559 17.559 17.559h62.339c4.143 0 7.5-3.358 7.5-7.5s-3.357-7.5-7.5-7.5h-62.339c-1.411 0-2.559-1.148-2.559-2.559v-43.02c.003-.091.003-.182.003-.273-.149-17.038-1.303-36.202-13.187-47.971-15.253-15.107-26.57-24.326-35.848-43.665l-54.111-123.831c-.02-.046-.04-.091-.061-.137-5.222-11.326.715-21.313 8.439-25.798 7.758-4.505 19.336-4.716 28.565 8.204.044.063.09.125.137.186l43.787 57.481c1.946 2.556 4.666 4.156 7.624 4.653 2.979.833 22.791 6.749 42.239 21.636 27.551 21.09 41.521 49.533 41.521 84.539 0 4.142 3.357 7.5 7.5 7.5s7.5-3.358 7.5-7.5c0-56.356-34.249-97.781-84.539-117.186.027-.339.042-.681.042-1.027v-199.831c0-11.044 8.717-20.269 19.431-20.563 11.437-.294 20.568 8.84 20.568 19.992v166.761c0 4.142 3.357 7.5 7.5 7.5s7.5-3.358 7.5-7.5c0-9.383 0-189.756 0-199.022 0-11.044 8.717-20.269 19.432-20.563 11.39-.307 20.567 8.808 20.567 19.992v199.594c0 4.142 3.357 7.5 7.5 7.5s7.5-3.358 7.5-7.5v-166.763c0-11.217 9.207-20.289 20.565-19.992 10.715.294 19.433 9.519 19.433 20.563v166.189c0 4.142 3.357 7.5 7.5 7.5s7.5-3.358 7.5-7.5v-135.044c0-11.074 9.059-20.278 20.566-19.992 10.715.294 19.433 9.519 19.433 20.563v76.771c0 4.142 3.357 7.5 7.5 7.5s7.5-3.358 7.5-7.5v-76.771c0-19.092-15.262-35.043-34.021-35.558-7.627-.216-14.881 1.985-20.978 6.252v-2.41c0-19.092-15.262-35.043-34.021-35.558-7.609-.217-14.879 1.985-20.977 6.251v-4.098c0-19.666-16.171-35.527-35.979-34.986-18.758.515-34.02 16.466-34.02 35.558v3.527c-6.098-4.267-13.36-6.462-20.979-6.252-18.759.515-34.02 16.466-34.02 35.558v191.504l-38.675-50.77c-14.124-19.682-34.394-20.399-48.234-12.36-13.818 8.024-23.245 26.043-14.563 44.977z" data-original="#000000" class="active-path" data-old_color="#000000" fill="#FFFFFF"/></g></g> </svg>
