<?xml version="1.0"?>
<svg xmlns="http://www.w3.org/2000/svg" height="512px" viewBox="0 0 60 60" width="512px"><g><g id="021---Acupuncture" transform="translate(-1)"><path id="Shape" d="m13.3 32.123c.4544845.092118.9163614.1429914 1.38.152.5522847 0 1-.4477153 1-1s-.4477153-1-1-1c-.8728261.013473-1.7274461-.2501603-2.441-.753-.7327388-.7915193-1.8695158-1.0648664-2.882-.693-.9.373-1.97 1.463-1.97 4.534.04863866.8558095-.29868228 1.6865038-.942 2.253-1.532 1.687-1.421 2.766-1 4.845.01034953.0316139.02236636.0626574.036.093.25246721.8872179.56587885 1.7559495.938 2.6.14129853.3281485.44692888.5559883.80176305.5976944s.7049644-.1090577.91850002-.3955c.21353562-.2864424.25803549-.665046.11673693-.9931944-.225-.524-.407-.986-.556-1.4 2.365-.746 4.793-2.4 5.582-4.8.3859438-1.3181574.3921828-2.7184558.018-4.04zm-1.92 3.423c-.552 1.679-2.4 2.89-4.181 3.473-.13184495-.7660273.1434039-1.5455835.727-2.059.97631352-.9379541 1.50754234-2.2469369 1.461-3.6 0-1.435.355-3.432 1.409-2.449.7134196 1.4344261.9196361 3.0682951.585 4.635z" data-original="#000000" class="active-path" data-old_color="#000000" fill="#FFFFFF"/><path id="Shape" d="m56 28c-2.3751008.0029983-4.4215673 1.6735832-4.9 4h-12.159c3.212-6.132 4.014-11.534 1.827-18.131l6.727-1.7c1.1138893 2.3125433 3.797926 3.4059836 6.2107127 2.5301606 2.4127868-.8758229 3.770454-3.4363706 3.1415671-5.92496596-.6288869-2.48859539-3.0400143-4.09674006-5.5792157-3.72115807-2.5392015.37558199-4.3815376 2.61287104-4.2630641 5.17696343l-6.95 1.756c-1.6063879-4.07713616-4.4257303-7.56283048-8.077-9.986-4.0698896-2.5412118-9.2006476-2.66461365-13.388-.322-12.369 6.422-12.511 19.972-12.511 20.546v2.067c0 9.52-9.088 1.732-2.966 27.127 2.125 8.817 9.861 10.417 14.556 6.757 3.142-2.441 4.5-5.987 6.2-8.435l17.131 3.312c.0263862 2.5666466 1.9919524 4.6964012 4.5482489 4.9281749 2.5562965.2317736 4.8728611-1.5097297 5.3604463-4.0297756.4875853-2.5200459-1.0122102-4.9999489-3.4704724-5.7384055-2.4582621-.7384566-5.076377.5044351-6.0582228 2.8760062l-15.945-3.082c4.9219017-3.9007021 9.1136971-8.6426685 12.381-14.006h13.284c.5262254 2.577967 2.9603418 4.3070246 5.5678215 3.955063 2.6074796-.3519616 4.4960549-2.6645028 4.3199453-5.2897289-.1761097-2.6252262-2.3566403-4.6647971-4.9877668-4.6653341zm-6.576-19.537c.621644-1.04211452 1.8098539-1.60711956 3.010526-1.4315335s2.1773315 1.05718119 2.4745279 2.23366674c.2971963 1.17648556-.1436039 2.41615036-1.1168401 3.14089536-.9732361.724745-2.2872274.7918302-3.3292138.1699714-1.4225373-.848972-1.8876788-2.69028774-1.039-4.113zm-12.766 23.537h-2.011c3.2361716-5.1304366 4.171066-11.3833818 2.577-17.236l1.61-.407c2.166 6.436 1.223 11.608-2.176 17.643zm-7.8 0c1.085-2.188.535-4.355-.734-6.461-2.739-4.539-10.112-6.121-13.376-6.611-.29-4.016.564-8.493 4.774-11.2 6.163-3.96 12.4-.651 15.093 5.631l-6.129 1.548c-.5357162.1353098-.8603098.6792838-.725 1.215s.6792838.8603098 1.215.725l6.317-1.6c1.643 5.679.3 12.6-3.16 16.748zm15.462 18.515c1.0051135-.6789507 2.3201771-.6858495 3.3323587-.0174814 1.0121815.6683681 1.5223023 1.8804805 1.2926413 3.0714814-.2308403 1.1907493-1.1559894 2.1253419-2.344333 2.368263-1.1883435.2429211-2.4060469-.2536299-3.085667-1.258263-.451438-.6564954-.6174139-1.4679729-.46-2.249.14877-.7817499.6043327-1.4713963 1.265-1.915zm-19.851-4.288c-.5310601.3759815-1.0119474.8182231-1.431 1.316l-8.267-1.6c-.3508348-.0677018-.711138.0569072-.9451869.3268882-.234049.2699809-.3062859.6443172-.1895.982s.4048521.58741.7556869.6551118l7.35 1.421c-1.572 2.5-2.8 5.322-5.3 7.267-3.7 2.888-9.648 1.551-11.382-5.647-.852-3.524-3.438-14.248-1.13-17.838 1.9-2.959 4.149-3.225 4.149-8.819v-2.067c0-.128.13-12.906 11.432-18.77 7.859-4.072 15.11.993 18.6 9.022l-1.551.392c-3.147-7.722-10.867-11.482-18.119-6.821-10.462 6.723-3.393 22.2-3.32 22.358.1450825.3331627.4594766.5614025.8211923.5961588.3617158.0347564.7138182-.1294415.919686-.4288822.2058677-.2994407.2330967-.6869915.0711217-1.0122766-.9041908-2.1036344-1.5531468-4.308003-1.933-6.566 2.827.477 9.213 1.932 11.413 5.578 1.488 2.47 1.224 4 .076 5.428h-5.489c-.5522847 0-1 .4477153-1 1s.4477153 1 1 1h3.228c-3.3287348 2.0774574-6.8790729 3.7766556-10.585 5.066-.5080213.2023544-.7592878.7752516-.5640472 1.2860491s.7645731.7700395 1.2780472.5819509c6.717-2.571 10.811-4.729 13.013-6.934h2.846c-2.681 2.524-5.589 4.691-8.1 9.54-.254051.4904289-.0624288 1.093949.428 1.348.4904289.2540509 1.093949.0624288 1.348-.428 2.806-5.409 6.222-7.286 9.151-10.46h2.415c-2.9780319 4.6428484-6.6891897 8.7720983-10.989 12.227zm31.531-10.227c-1.6568542 0-3-1.3431458-3-3s1.3431458-3 3-3 3 1.3431458 3 3-1.3431458 3-3 3z" data-original="#000000" class="active-path" data-old_color="#000000" fill="#FFFFFF"/></g></g> </svg>
