<?xml version="1.0"?>
<svg xmlns="http://www.w3.org/2000/svg" id="Outline" viewBox="0 0 512 512" width="512px" height="512px"><g><path d="M376,80H304V24a8,8,0,0,0-8-8H216a8,8,0,0,0-8,8V80H136a72.081,72.081,0,0,0-72,72V488a8,8,0,0,0,8,8H440a8,8,0,0,0,8-8V152A72.081,72.081,0,0,0,376,80Zm56,400H392V449.869a23.956,23.956,0,0,0,0-35.738V368c0-.121,0-.242-.008-.363l-2.557-56.265a23.995,23.995,0,0,0-2.143-47.141l-3.3-72.594a8,8,0,1,0-15.984.726l2.144,47.177c-2.429,7.569-5.355,15.219-8.447,23.282-2.172,5.664-4.361,11.376-6.425,17.178H328a8,8,0,0,0,0,16h22.107C346.492,308.628,344,321.825,344,336c0,27.006,9,50.48,17.707,73.183.359.937.715,1.868,1.072,2.8a24.118,24.118,0,0,0-9.4,12.016H320a8,8,0,0,0,0,16h33.376A24.039,24.039,0,0,0,376,456v24H136V464c0-17.539,6.944-35.649,14.3-54.822C159,386.477,168,363,168,336s-9-50.478-17.705-73.178c-3.092-8.063-6.018-15.712-8.447-23.282l2.144-47.177a8,8,0,0,0-15.984-.726l-8,176c0,.121-.008.242-.008.363V480H80V152a56.063,56.063,0,0,1,56-56h80a8,8,0,0,0,8-8V32h64V88a8,8,0,0,0,8,8h80a56.063,56.063,0,0,1,56,56ZM384,296a8,8,0,1,1,8-8A8.009,8.009,0,0,1,384,296Zm-19.085,6.529a24.147,24.147,0,0,0,8.417,6.961L376,368.182v33.586c-7.977-20.819-16-42.357-16-65.768A126.616,126.616,0,0,1,364.915,302.529ZM376,424a8,8,0,1,1-8,8A8.009,8.009,0,0,1,376,424ZM139.974,280.76C146.439,298.319,152,316.51,152,336c0,23.411-8.023,44.949-16,65.768V368.182Z" data-original="#000000" class="active-path" data-old_color="#000000" fill="#FFFFFF"/><path d="M201.376,184a24,24,0,1,0,0-16H168a8,8,0,0,0,0,16ZM224,168a8,8,0,1,1-8,8A8.009,8.009,0,0,1,224,168Z" data-original="#000000" class="active-path" data-old_color="#000000" fill="#FFFFFF"/><path d="M217.376,280H184a8,8,0,0,0,0,16h33.376a24,24,0,1,0,0-16ZM248,288a8,8,0,1,1-8-8A8.009,8.009,0,0,1,248,288Z" data-original="#000000" class="active-path" data-old_color="#000000" fill="#FFFFFF"/><path d="M224,408a24.039,24.039,0,0,0-22.624,16H168a8,8,0,0,0,0,16h33.376A24,24,0,1,0,224,408Zm0,32a8,8,0,1,1,8-8A8.009,8.009,0,0,1,224,440Z" data-original="#000000" class="active-path" data-old_color="#000000" fill="#FFFFFF"/><path d="M281.376,352H248a8,8,0,0,0,0,16h33.376a24,24,0,1,0,0-16ZM312,360a8,8,0,1,1-8-8A8.009,8.009,0,0,1,312,360Z" data-original="#000000" class="active-path" data-old_color="#000000" fill="#FFFFFF"/><path d="M328,192a24.039,24.039,0,0,0-22.624,16H272a8,8,0,0,0,0,16h33.376A24,24,0,1,0,328,192Zm0,32a8,8,0,1,1,8-8A8.009,8.009,0,0,1,328,224Z" data-original="#000000" class="active-path" data-old_color="#000000" fill="#FFFFFF"/><path d="M384,120a24.039,24.039,0,0,0-22.624,16H328a8,8,0,0,0,0,16h33.376A24,24,0,1,0,384,120Zm0,32a8,8,0,1,1,8-8A8.009,8.009,0,0,1,384,152Z" data-original="#000000" class="active-path" data-old_color="#000000" fill="#FFFFFF"/></g> </svg>
