<?xml version="1.0"?>
<svg xmlns="http://www.w3.org/2000/svg" id="_x33_0" enable-background="new 0 0 64 64" height="512px" viewBox="0 0 64 64" width="512px"><g><g><path d="m24.707 21.707-1.414-1.414-.293.292c-.535.535-1.465.535-2 0l-.293-.293-1.414 1.414.293.294c.646.645 1.503 1 2.414 1s1.769-.355 2.414-1z" data-original="#000000" class="active-path" data-old_color="#000000" fill="#FFFFFF"/><path d="m32.707 21.707-1.414-1.414-.293.292c-.535.535-1.465.535-2 0l-.293-.293-1.414 1.414.293.294c.646.645 1.503 1 2.414 1s1.769-.355 2.414-1z" data-original="#000000" class="active-path" data-old_color="#000000" fill="#FFFFFF"/><path d="m28 27.764c-.381.762-1.147 1.236-2 1.236s-1.619-.474-2-1.236l-.105-.211-1.789.895.105.21c.722 1.445 2.174 2.342 3.789 2.342s3.067-.897 3.789-2.342l.105-.211-1.789-.895z" data-original="#000000" class="active-path" data-old_color="#000000" fill="#FFFFFF"/><path d="m9 57h8v2h-8z" data-original="#000000" class="active-path" data-old_color="#000000" fill="#FFFFFF"/><path d="m19 57h4v2h-4z" data-original="#000000" class="active-path" data-old_color="#000000" fill="#FFFFFF"/><path d="m27 55h14v2h-14z" data-original="#000000" class="active-path" data-old_color="#000000" fill="#FFFFFF"/><path d="m61 17h-4c-1.103 0-2 .897-2 2h-2c-1.103 0-2 .897-2 2v2h-2c-1.103 0-2 .897-2 2h-6v-9c0-8.271-6.729-15-15-15s-15 6.729-15 15v24.506c-2.569 1.052-4.615 3.174-5.507 5.851-.327.982-.493 2.006-.493 3.042v4.122c-2.441 2.02-4 5.071-4 8.479v1h50v-1c0-3.408-1.559-6.459-4-8.479v-4.122c0-1.036-.166-2.06-.494-3.043-.891-2.676-2.937-4.798-5.506-5.851v-13.505h6c0 1.103.897 2 2 2h2v2c0 1.103.897 2 2 2h2c0 1.103.897 2 2 2h4c1.103 0 2-.897 2-2v-14c0-1.103-.897-2-2-2zm-35-14c7.168 0 13 5.832 13 13v9h-2.069c.03-.333.069-.664.069-1v-6.848l-1.256-.208c-3.443-.574-6.568-2.183-9.037-4.651l-.707-.707-.707.707c-2.469 2.468-5.594 4.077-9.037 4.651l-1.256.208v6.848c0 4.576 2.81 8.505 6.793 10.16l-.443 2.662c-.137.815-.746 1.455-1.555 1.627l-6.795 1.456v-23.905c0-7.168 5.832-13 13-13zm0 30c-4.963 0-9-4.038-9-9v-5.158c3.374-.639 6.46-2.171 9-4.463 2.54 2.292 5.626 3.824 9 4.463v4.342c-.314-.112-.648-.184-1-.184-1.654 0-3 1.346-3 3 0 1.479 1.077 2.703 2.487 2.948-1.644 2.475-4.434 4.052-7.487 4.052zm9-7c0 .551-.448 1-1 1s-1-.449-1-1 .448-1 1-1 1 .449 1 1zm13.944 35h-45.888c.499-4.494 4.319-8 8.944-8h28c4.625 0 8.445 3.506 8.944 8zm-4.336-14.012c.26.779.392 1.59.392 2.411v2.815c-1.502-.77-3.199-1.214-5-1.214h-1v-4h-2v4h-10v-2h-2v2h-10v-4h-2v4h-1c-1.801 0-3.498.444-5 1.214v-2.815c0-.821.132-1.632.391-2.411.85-2.547 3.009-4.479 5.636-5.042l7.188-1.541c1.615-.346 2.835-1.623 3.107-3.254l.398-2.392c.737.156 1.498.241 2.28.241.776 0 1.538-.089 2.279-.247l.4 2.399c.271 1.63 1.49 2.907 3.106 3.254l7.188 1.54c2.628.563 4.787 2.495 5.635 5.042zm-5.608-7.083-6.795-1.455c-.809-.173-1.418-.812-1.554-1.627l-.445-2.668c2.733-1.137 4.961-3.354 6.059-6.211.238-.277.425-.594.55-.944h2.185zm10-12.905v-2h2v2zm4 4v-10h2v10zm8 2h-4v-14h4z" data-original="#000000" class="active-path" data-old_color="#000000" fill="#FFFFFF"/></g></g> </svg>
