<?xml version="1.0"?>
<svg xmlns="http://www.w3.org/2000/svg" xmlns:xlink="http://www.w3.org/1999/xlink" version="1.1" id="Capa_1" x="0px" y="0px" viewBox="0 0 496 496" style="enable-background:new 0 0 496 496;" xml:space="preserve" width="512px" height="512px"><g><g>
	<g>
		<g>
			<rect x="216" y="288" width="16" height="80" data-original="#000000" class="active-path" data-old_color="#000000" fill="#FFFFFF"/>
			<rect x="264" y="320" width="16" height="96" data-original="#000000" class="active-path" data-old_color="#000000" fill="#FFFFFF"/>
			<path d="M437.656,138.344L408,108.688V8c0-4.418-3.582-8-8-8h-96c-4.418,0-8,3.582-8,8v100.688l-29.656,29.656     c-1.5,1.5-2.344,3.534-2.344,5.656v64c0,13.255,10.745,24,24,24c2.732-0.027,5.438-0.524,8-1.472V280     c-0.058,13.197,10.593,23.943,23.79,24.002c5.995,0.027,11.781-2.201,16.21-6.242c9.044,8.32,22.956,8.32,32,0     c3.502,3.158,7.862,5.207,12.528,5.888c-8.302,23.238-12.54,47.732-12.528,72.408v30.192     c-0.008,23.217,3.736,46.282,11.088,68.304l1.808,5.448H115.104l1.808-5.448c7.352-22.022,11.096-45.087,11.088-68.304v-30.192     c0.013-24.677-4.227-49.172-12.536-72.408c4.67-0.676,9.034-2.725,12.536-5.888c9.044,8.32,22.956,8.32,32,0     c9.75,8.894,24.864,8.2,33.758-1.55c4.04-4.429,6.268-10.215,6.242-16.21v-49.472c2.562,0.947,5.268,1.445,8,1.472     c13.255,0,24-10.745,24-24v-64c0-2.122-0.844-4.156-2.344-5.656L200,108.688V8c0-4.418-3.582-8-8-8H96c-4.418,0-8,3.582-8,8     v100.688l-29.656,29.656c-1.5,1.5-2.344,3.534-2.344,5.656v120c-0.045,13.211,10.628,23.956,23.839,24.001     c3.115,0.011,6.203-0.588,9.089-1.761c1.343,4.942,4.237,9.322,8.256,12.496l-0.608,0.24l1.12,2.8     c9.469,23.619,14.324,48.834,14.304,74.28v30.192c0.005,21.497-3.458,42.854-10.256,63.248l-5.328,16     c-1.383,4.196,0.898,8.719,5.094,10.102c0.804,0.265,1.644,0.4,2.49,0.402h288c4.418-0.003,7.997-3.588,7.994-8.006     c-0.001-0.857-0.139-1.709-0.41-2.522l-5.328-16c-6.795-20.386-10.258-41.735-10.256-63.224v-30.192     c-0.02-25.443,4.833-50.654,14.296-74.272l1.128-2.808l-0.608-0.24c4.019-3.174,6.913-7.554,8.256-12.496     c12.238,4.975,26.192-0.913,31.167-13.151c1.173-2.886,1.771-5.974,1.761-9.089V144C440,141.878,439.156,139.844,437.656,138.344     z M104,280v-72H88v56c0,4.418-3.582,8-8,8s-8-3.582-8-8V147.312l29.656-29.656c1.5-1.5,2.344-3.534,2.344-5.656V16h80v96     c0,2.122,0.844,4.156,2.344,5.656L216,147.312V208c0,4.418-3.582,8-8,8s-8-3.582-8-8v-32h-16v104c0,4.418-3.582,8-8,8     s-8-3.582-8-8v-72h-16v72c0,4.418-3.582,8-8,8s-8-3.582-8-8v-72h-16v72c0,4.418-3.582,8-8,8S104,284.418,104,280z M424,264     c0,4.418-3.582,8-8,8s-8-3.582-8-8v-56h-16v72c0,4.418-3.582,8-8,8s-8-3.582-8-8v-72h-16v72c0,4.418-3.582,8-8,8s-8-3.582-8-8     v-72h-16v72c0,4.418-3.582,8-8,8s-8-3.582-8-8V176h-16v32c0,4.418-3.582,8-8,8s-8-3.582-8-8v-60.688l29.656-29.656     c1.5-1.5,2.344-3.534,2.344-5.656V16h80v96c0,2.122,0.844,4.156,2.344,5.656L424,147.312V264z" data-original="#000000" class="active-path" data-old_color="#000000" fill="#FFFFFF"/>
		</g>
	</g>
</g></g> </svg>
