<?xml version="1.0"?>
<svg xmlns="http://www.w3.org/2000/svg" id="Layer_3" enable-background="new 0 0 64 64" height="512px" viewBox="0 0 64 64" width="512px" class=""><g><g><path d="m43 12c1.654 0 3-1.346 3-3s-1.346-3-3-3h-1.184c-.414-1.161-1.514-2-2.816-2h-1.616c-2.084-1.931-4.77-3-7.627-3h-.757c-5.748 0-10.745 3.254-13.263 8.013-3.737.14-6.737 3.216-6.737 6.987 0 3.142 2.059 5.835 5 6.704v24.296c0 2.953 1.613 5.532 4 6.918v.082c0 1.005.385 1.914 1 2.618v6.382h2v-5.142c.322.084.653.142 1 .142s.678-.058 1-.142v5.142h2v-6.382c.615-.703 1-1.612 1-2.618v-.082c2.387-1.386 4-3.964 4-6.918v-16.012c2.766-.059 5.36-1.112 7.384-2.988h1.616c1.302 0 2.402-.839 2.816-2h1.184c1.654 0 3-1.346 3-3s-1.346-3-3-3h-1v-1h1c1.654 0 3-1.346 3-3s-1.346-3-3-3h-1v-1zm1-3c0 .551-.449 1-1 1h-1v-2h1c.551 0 1 .449 1 1zm-16-5.949v25.899c-6.701-.514-12-6.119-12-12.95s5.299-12.436 12-12.949zm-17 12.949c0-2.348 1.633-4.309 3.818-4.844-.522 1.522-.818 3.148-.818 4.844v4.567c-1.787-.777-3-2.534-3-4.567zm11 40c-.827 0-1.539-.505-1.843-1.223.593.141 1.208.223 1.843.223s1.25-.082 1.843-.223c-.304.718-1.016 1.223-1.843 1.223zm0-3c-3.309 0-6-2.691-6-6v-23.549c2.434 4.229 6.865 7.157 12 7.498v16.051c0 3.309-2.691 6-6 6zm8-49.997c2.246.058 4.35.921 6 2.438v21.119c-1.65 1.517-3.754 2.38-6 2.438zm10 21.997c0 .551-.449 1-1 1h-1v-20h1c.551 0 1 .449 1 1zm3-3c.551 0 1 .449 1 1s-.449 1-1 1h-1v-2zm0-7c.551 0 1 .449 1 1s-.449 1-1 1h-1v-2z" data-original="#000000" class="active-path" data-old_color="#000000" fill="#FFFFFF"/><path d="m49.414 21c-.263-.263-.414-.628-.414-1s.151-.737.414-1l.586-.586c.645-.645 1-1.502 1-2.414s-.355-1.77-1-2.414l-.586-.586c-.263-.263-.414-.628-.414-1s.151-.737.414-1l.586-.586c.645-.644 1-1.502 1-2.414s-.355-1.77-1-2.414l-1.293-1.293-1.414 1.414 1.293 1.293c.263.263.414.628.414 1s-.151.737-.414 1l-.586.586c-.645.645-1 1.502-1 2.414s.355 1.77 1 2.414l.586.586c.263.263.414.628.414 1s-.151.737-.414 1l-.586.586c-.645.645-1 1.502-1 2.414s.355 1.77 1 2.414l.586.586c.263.263.414.628.414 1s-.151.737-.414 1l-1.293 1.293 1.414 1.414 1.293-1.293c.645-.645 1-1.502 1-2.414s-.355-1.77-1-2.414z" data-original="#000000" class="active-path" data-old_color="#000000" fill="#FFFFFF"/><path d="m54 18.414c.645-.645 1-1.502 1-2.414s-.355-1.77-1-2.414l-.586-.586c-.263-.263-.414-.628-.414-1s.151-.737.414-1l.586-.586c.645-.644 1-1.502 1-2.414s-.355-1.77-1-2.414l-1.293-1.293-1.414 1.414 1.293 1.293c.263.263.414.628.414 1s-.151.737-.414 1l-.586.586c-.645.645-1 1.502-1 2.414s.355 1.77 1 2.414l.586.586c.263.263.414.628.414 1s-.151.737-.414 1l-.586.586c-.645.645-1 1.502-1 2.414s.355 1.77 1 2.414l.586.586c.263.263.414.628.414 1s-.151.737-.414 1l-1.293 1.293 1.414 1.414 1.293-1.293c.645-.645 1-1.502 1-2.414s-.355-1.77-1-2.414l-.586-.586c-.263-.263-.414-.628-.414-1s.151-.737.414-1z" data-original="#000000" class="active-path" data-old_color="#000000" fill="#FFFFFF"/><path d="m19 16c0-3.754 2.073-7.159 5.41-8.887l-.92-1.776c-4.003 2.073-6.49 6.159-6.49 10.663z" data-original="#000000" class="active-path" data-old_color="#000000" fill="#FFFFFF"/><path d="m19 47v-6h-2v6c0 2.757 2.243 5 5 5v-2c-1.654 0-3-1.346-3-3z" data-original="#000000" class="active-path" data-old_color="#000000" fill="#FFFFFF"/></g></g> </svg>
