<?xml version="1.0"?>
<svg xmlns="http://www.w3.org/2000/svg" xmlns:xlink="http://www.w3.org/1999/xlink" version="1.1" id="Capa_1" x="0px" y="0px" viewBox="0 0 512 512" style="enable-background:new 0 0 512 512;" xml:space="preserve" width="512px" height="512px" class=""><g><g>
	<g>
		<path d="M512,387.992h-24.453c-5.685-2.753-11.961-4.212-18.463-4.212h-51.4v-29.443h12.674l10.979,14.971h32.737    c20.638,0,37.427-16.789,37.427-37.427c0-9.992-3.893-19.39-10.965-26.461c-7.071-7.071-16.469-10.966-26.462-10.966h-32.737    l-10.979,14.971h-13.411c-1.45-7.271-5.011-13.958-10.379-19.325c-7.168-7.168-16.689-11.115-26.811-11.115h-9.047l72.982-72.974    l-48.673-89.325c-7.435-13.644-21.708-22.121-37.246-22.121h-29.655v-8.683l14.971-10.979V38.175    c0-20.638-16.789-37.427-37.427-37.427s-37.427,16.789-37.427,37.427v36.728l14.971,10.979v8.683h-29.214    c-15.546,0-29.821,8.481-37.253,22.135l-48.626,89.312l72.981,72.973h-29.508l-30.762-8.351    c-30.387-8.263-62.241,5.249-77.568,32.304H0v14.971h100.304v28.943H0v14.971h100.304v26.169H0v14.971h34.266v108.289h14.971    V402.963h14.971v108.289h14.971V402.963h21.126v45.91h138.729v-45.91h14.971v108.289h14.971V402.963h26.947v108.289h14.971    V402.963h27.945v108.289h14.971V402.963h13.973v3.274c0,15.134,12.313,27.446,27.446,27.446h24.452v77.568h14.971v-77.568h14.971    v77.568h14.971v-77.568h46.908v-7.485c0-8.383-2.42-16.39-6.919-23.235H512V387.992z M224.062,433.903H115.275V312.204    c11.543-22.385,37.18-33.774,61.625-27.123l32.691,8.875h14.472V433.903z M425.191,203.341l-88.625,88.616    c-1.414,1.414-3.294,2.192-5.293,2.192c-1.998,0-3.877-0.778-5.292-2.193c-1.413-1.413-2.191-3.293-2.191-5.291    c0-1.999,0.777-3.878,2.192-5.292l80.949-80.95l-8.922-14.768l13.422-7.564L425.191,203.341z M353.809,232.374v-17.722    l11.874-53.554l22.372,37.032L353.809,232.374z M283.207,38.175c0-12.383,10.074-22.456,22.456-22.456    s22.456,10.073,22.456,22.456v29.143l-14.971,10.979v31.239h10.22v6.487c0,9.63-7.836,17.466-17.466,17.466    s-17.466-7.836-17.466-17.466v-6.487h9.741V78.297l-14.971-10.979V38.175z M186.614,203.338l13.751-25.256l13.293,7.493    l-8.726,14.906l80.891,80.891c1.414,1.414,2.192,3.293,2.192,5.292c0,1.998-0.778,3.877-2.192,5.292    c-1.413,1.413-3.293,2.192-5.291,2.192c-1.999,0-3.878-0.779-5.293-2.192L186.614,203.338z M223.692,198.069l21.188-36.195    l9.124,52.602v13.906L223.692,198.069z M367.782,387.992H239.033v-26.169h128.749V387.992z M395.228,418.712    c-6.88,0-12.476-5.596-12.476-12.476v-59.384H239.033v-52.897h17.034l8.588,8.587c4.241,4.241,9.88,6.576,15.877,6.576    c5.998,0,11.636-2.336,15.876-6.576c4.242-4.242,6.577-9.88,6.577-15.878s-2.335-11.636-6.576-15.878l-27.434-27.434v-30.165    l-12.957-74.708h-14.789l-20.007,34.176l-13.698-7.722l22.363-41.075c4.81-8.835,14.047-14.323,24.105-14.323h19.474v6.487    c0,17.885,14.551,32.437,32.437,32.437s32.437-14.552,32.437-32.437v-6.487h19.435c10.054,0,19.289,5.484,24.1,14.313    l22.393,41.095l-14.002,7.892L369.51,138.48h-14.146l-16.526,74.533v34.332l-23.442,23.442c-4.241,4.242-6.576,9.88-6.576,15.878    s2.335,11.636,6.576,15.877c4.241,4.241,9.879,6.576,15.877,6.577c0,0,0,0,0.001,0c5.997,0,11.635-2.335,15.876-6.576l8.588-8.587    h24.02c6.123,0,11.885,2.39,16.225,6.731c4.341,4.34,6.73,10.101,6.73,16.224v7.485h35.232l10.979-14.971h25.15    c5.994,0,11.632,2.337,15.875,6.58c4.244,4.244,6.581,9.882,6.581,15.876c0,12.383-10.074,22.456-22.456,22.456h-25.15    l-10.979-14.971h-35.232v59.384h66.37c7.333,0,14.225,2.854,19.408,8.037c3.369,3.368,5.754,7.459,7.01,11.924H395.228z" data-original="#000000" class="active-path" data-old_color="#000000" fill="#FFFFFF"/>
	</g>
</g><g>
	<g>
		<rect x="130.246" y="375.517" width="14.971" height="14.971" data-original="#000000" class="active-path" data-old_color="#000000" fill="#FFFFFF"/>
	</g>
</g><g>
	<g>
		<rect x="130.246" y="405.458" width="14.971" height="14.971" data-original="#000000" class="active-path" data-old_color="#000000" fill="#FFFFFF"/>
	</g>
</g><g>
	<g>
		<rect x="130.246" y="345.575" width="14.971" height="14.971" data-original="#000000" class="active-path" data-old_color="#000000" fill="#FFFFFF"/>
	</g>
</g><g>
	<g>
		<rect x="130.246" y="315.634" width="14.971" height="14.971" data-original="#000000" class="active-path" data-old_color="#000000" fill="#FFFFFF"/>
	</g>
</g><g>
	<g>
		<rect x="194.121" y="315.634" width="14.971" height="14.971" data-original="#000000" class="active-path" data-old_color="#000000" fill="#FFFFFF"/>
	</g>
</g><g>
	<g>
		<rect x="194.121" y="375.517" width="14.971" height="14.971" data-original="#000000" class="active-path" data-old_color="#000000" fill="#FFFFFF"/>
	</g>
</g><g>
	<g>
		<rect x="194.121" y="405.458" width="14.971" height="14.971" data-original="#000000" class="active-path" data-old_color="#000000" fill="#FFFFFF"/>
	</g>
</g><g>
	<g>
		<rect x="194.121" y="345.575" width="14.971" height="14.971" data-original="#000000" class="active-path" data-old_color="#000000" fill="#FFFFFF"/>
	</g>
</g><g>
	<g>
		<rect x="295.922" y="161.435" width="14.971" height="14.971" data-original="#000000" class="active-path" data-old_color="#000000" fill="#FFFFFF"/>
	</g>
</g><g>
	<g>
		<rect x="295.922" y="197.115" width="14.971" height="14.971" data-original="#000000" class="active-path" data-old_color="#000000" fill="#FFFFFF"/>
	</g>
</g><g>
	<g>
		<rect x="295.922" y="232.795" width="14.971" height="14.971" data-original="#000000" class="active-path" data-old_color="#000000" fill="#FFFFFF"/>
	</g>
</g></g> </svg>
