<?xml version="1.0"?>
<svg xmlns="http://www.w3.org/2000/svg" height="512px" viewBox="0 0 128 128" width="512px"><g><g><path d="m99.82 98.876h-6.737v-34.01a28.9 28.9 0 0 0 -21.25-27.989v-7.14a1.75 1.75 0 0 0 -1.75-1.75h-.958v-8.114h.958a1.75 1.75 0 0 0 0-3.5h-12.166a1.75 1.75 0 0 0 0 3.5h.958v8.114h-.958a1.75 1.75 0 0 0 -1.75 1.75v7.14a28.894 28.894 0 0 0 -21.25 27.989v34.01h-6.737a1.75 1.75 0 0 0 -1.75 1.75v9.251a1.75 1.75 0 0 0 1.75 1.75h71.64a1.75 1.75 0 0 0 1.75-1.75v-9.251a1.75 1.75 0 0 0 -1.75-1.75zm-40.153-67.389h8.666v4.3h-8.666zm0 7.8h8.666v4.134h-8.666zm2.708-19.41h3.25v8.114h-3.25zm-23.958 44.989a25.429 25.429 0 0 1 17.75-24.366v4.666a1.75 1.75 0 0 0 1.75 1.75h12.166a1.75 1.75 0 0 0 1.75-1.75v-4.666a25.428 25.428 0 0 1 17.75 24.365v34.01h-51.166zm59.653 43.261h-68.14v-5.751h68.14z" data-original="#000000" class="active-path" data-old_color="#000000" fill="#FFFFFF"/><path d="m48.5 50.592a21.012 21.012 0 0 0 -5.579 14.274v27.76a1.75 1.75 0 0 0 3.5 0v-27.76a17.519 17.519 0 0 1 4.653-11.9 1.75 1.75 0 0 0 -2.574-2.374z" data-original="#000000" class="active-path" data-old_color="#000000" fill="#FFFFFF"/></g></g> </svg>
